/* XPM */

static char* hide_inactive_xpm [] = {

"22 22 2 1",

". c #888888 s inactive_color_2",
"+ c #444444 s inactive_text_color",

"......................",
"......................",
"......................",
"......................",
"......................",
"......................",
"......................",
"......................",
"......................",
"......................",
"......................",
"......................",
"......................",
"......++++++++++......",
"......++++++++++......",
"......++++++++++......",
"......................",
"......................",
"......................",
"......................",
"......................",
"......................"

};
