/* XPM */

static char* hide_active_xpm [] = {

"22 22 2 1",

". c #123456 s active_color_1",
"+ c #ffffff s active_text_color",

"......................",
"......................",
"......................",
"......................",
"......................",
"......................",
"......................",
"......................",
"......................",
"......................",
"......................",
"......................",
"......................",
"......++++++++++......",
"......++++++++++......",
"......++++++++++......",
"......................",
"......................",
"......................",
"......................",
"......................",
"......................"

};
