/* XPM */

static char* shade_toggled_prelight_xpm [] = {

"22 22 2 1",

". c #123456 s active_color_1",
"+ c #456789 s active_hilight_1",

"......................",
"......................",
"......................",
"......................",
"......................",
"......................",
"......................",
"......................",
"......................",
"......................"
"......++......++......",
"......+++....+++......",
".......+++..+++.......",
"........++++++........",
".........++++.........",
"..........++..........",
"......................",
"......................",
"......................",
"......................",
"......................",
"......................"

};
