/* XPM */
	
static char* {name} [] = {

"22 22 2 1",

". c #123456 s {back}",
"+ c #FFFFFF s {fore}",

"......................",
"......................",
"......................",
"......................",
"......................",
"......................",
".......++....++.......",
"......+++....+++......",
"......++......++......",
"......................",
"......................",
"......................",
"......................",
"......++......++......",
"......+++....+++......",
".......++....++.......",
"......................",
"......................",
"......................",
"......................",
"......................",
"......................",

};
